<?xml version="1.0" encoding="UTF-8"?>
<svg xmlns="http://www.w3.org/2000/svg" width="20" height="20" viewBox="0 0 20 20">
  <path fill="#000000" fill-rule="evenodd" d="M 10.00 1.00 L 13.00 1.50 L 15.75 2.50 L 16.75 3.25 L 17.00 3.75 L 17.00 11.00 C 17.00 13.25 15.50 14.75 13.50 16.50 L 10.00 18.75 L 6.50 16.50 C 4.50 14.75 3.00 13.25 3.00 11.00 L 3.00 3.75 L 3.25 3.25 L 4.25 2.50 L 7.00 1.50 L 10.00 1.00 Z M 10.00 2.25 L 12.50 2.75 L 14.75 3.50 L 15.75 4.25 L 15.75 11.00 C 15.75 12.75 14.50 14.00 12.75 15.50 L 10.00 17.25 L 7.25 15.50 C 5.50 14.00 4.25 12.75 4.25 11.00 L 4.25 4.25 L 5.25 3.50 L 7.50 2.75 L 10.00 2.25 Z M 6.75 4.25 L 7.75 4.25 L 7.75 5.50 L 8.75 5.50 L 8.75 4.25 L 11.25 4.25 L 11.25 5.50 L 12.25 5.50 L 12.25 4.25 L 13.25 4.25 L 13.25 6.75 L 12.50 7.50 L 12.50 8.25 L 13.00 12.50 L 13.25 13.00 L 13.25 13.50 L 13.75 13.50 L 13.75 14.75 L 6.25 14.75 L 6.25 13.50 L 6.75 13.50 L 6.75 13.00 L 7.00 12.50 L 7.50 8.25 L 7.50 7.50 L 6.75 6.75 L 6.75 4.25 Z M 9.25 11.00 L 10.75 11.00 L 10.75 13.50 C 10.75 14.25 10.35 14.50 10.00 14.50 C 9.65 14.50 9.25 14.25 9.25 13.50 L 9.25 11.00 Z"/>
</svg>
